<svg width="182" height="24" viewBox="0 0 182 24" fill="none" xmlns="http://www.w3.org/2000/svg">
<g clip-path="url(#clip0_2107_368)">
<path d="M92.3079 13.0853C91.666 12.6046 90.9677 12.2042 90.2132 11.8842C89.4587 11.5641 88.721 11.2891 88 11.0603C86.897 10.694 85.9665 10.3569 85.2132 10.0478C84.4587 9.73874 83.8611 9.42477 83.4227 9.10351C82.9832 8.78345 82.6682 8.43419 82.4766 8.05694C82.285 7.6797 82.1892 7.23917 82.1892 6.73536C82.1892 5.59144 82.6167 4.75054 83.473 4.21144C84.3293 3.67356 85.3317 3.40462 86.4803 3.40462C87.8539 3.40462 88.9689 3.75996 89.824 4.46821C90.6803 5.17768 91.1306 6.34472 91.1761 7.96933H93.6085C93.6528 5.81901 93.0899 4.09097 91.9187 2.78642C90.7474 1.48186 88.9797 0.82959 86.6144 0.82959C85.1042 0.82959 83.8156 1.1107 82.7461 1.67049C81.6766 2.23149 80.8658 2.96409 80.3137 3.86705C79.7628 4.77123 79.4862 5.73747 79.4862 6.76821C79.4862 7.79895 79.7233 8.72017 80.1963 9.4625C80.6694 10.206 81.2934 10.8413 82.0706 11.3682C82.8479 11.8951 83.6862 12.3418 84.5868 12.7068C85.4874 13.0731 86.3773 13.3932 87.2563 13.6682C88.1797 13.9664 88.9797 14.2742 89.6552 14.5955C90.3306 14.9168 90.848 15.305 91.2097 15.7626C91.569 16.2201 91.7498 16.8274 91.7498 17.5819C91.7498 18.3364 91.5749 18.9546 91.2264 19.5046C90.8767 20.0535 90.3594 20.483 89.6731 20.7921C88.9857 21.1012 88.1366 21.2558 87.1234 21.2558C85.9521 21.2558 84.9329 21.0392 84.0659 20.6035C83.1988 20.1691 82.5173 19.574 82.0215 18.8183C81.5257 18.0626 81.2443 17.2046 81.176 16.2432H78.7436C78.6538 16.5864 78.6646 17.0671 78.7772 17.6853C78.8897 18.3035 79.1209 18.9619 79.4706 19.6592C79.8203 20.3577 80.3197 21.027 80.9736 21.6671C81.6263 22.3084 82.4658 22.8293 83.491 23.2284C84.5162 23.6288 85.7485 23.8296 87.1905 23.8296C88.8803 23.8296 90.2588 23.5436 91.3282 22.9717C92.3977 22.3997 93.1857 21.6501 93.6935 20.7228C94.2001 19.7955 94.454 18.7951 94.454 17.7194C94.454 16.6436 94.2564 15.6652 93.8624 14.9217C93.4684 14.1781 92.9498 13.566 92.3079 13.0853Z" fill="white"/>
<path d="M101.108 0.82959H98.4054V6.32282H94.791V8.89663H98.4054H101.108H104.724V6.32282H101.108V0.82959Z" fill="white"/>
<path d="M98.4043 23.8297H101.107V11.6433L98.4043 8.89673V23.8297Z" fill="white"/>
<path d="M117.527 16.3795C117.397 16.904 117.21 17.4407 116.952 17.9932C116.548 18.8633 115.961 19.5959 115.195 20.1897C114.43 20.7848 113.472 21.0829 112.324 21.0829C111.625 21.0829 110.994 20.9576 110.431 20.7057C109.868 20.4538 109.424 20.0364 109.097 19.4523C108.77 18.8681 108.607 18.0625 108.607 17.0318V5.94067H105.904V17.7194C105.904 18.9095 106.084 19.905 106.444 20.7057C106.805 21.5064 107.278 22.1307 107.864 22.5761C108.449 23.0227 109.085 23.3428 109.773 23.5375C110.46 23.7322 111.13 23.8296 111.782 23.8296C112.795 23.8296 113.646 23.6239 114.333 23.2114C115.021 22.7988 115.583 22.2731 116.023 21.6318C116.461 20.9917 116.8 20.3224 117.036 19.6238C117.263 18.9545 117.424 18.3473 117.526 17.7936V23.8283H120.229V5.94067H117.526V16.3795H117.527Z" fill="white"/>
<path d="M134.723 11.0348C134.546 10.1391 134.28 9.33107 133.912 8.6216C133.485 7.79774 132.87 7.15155 132.07 6.68181C131.27 6.21329 130.24 5.97843 128.979 5.97843C127.56 5.97843 126.299 6.36784 125.196 7.14546C124.092 7.9243 123.225 8.9879 122.595 10.3375C121.963 11.6883 121.648 13.2216 121.648 14.9375C121.648 16.6533 121.974 18.1818 122.628 19.5204C123.281 20.8591 124.165 21.9117 125.28 22.6784C126.395 23.445 127.628 23.8284 128.979 23.8284C130.217 23.8284 131.231 23.5363 132.02 22.9534C132.808 22.3693 133.422 21.6148 133.862 20.6875C134.255 19.8587 134.537 18.9911 134.723 18.0881V20.0522C134.723 20.4636 134.75 21.0136 134.807 21.7C134.863 22.3863 134.913 23.3246 134.959 23.8284H137.425V0.82959H134.722V11.0348H134.723ZM134.183 18.0796C133.822 19.03 133.264 19.7906 132.511 20.3626C131.756 20.9345 130.804 21.2205 129.656 21.2205C128.643 21.2205 127.736 20.9515 126.936 20.4137C126.136 19.8758 125.505 19.1322 125.044 18.1818C124.581 17.2326 124.351 16.1508 124.351 14.9375C124.351 13.106 124.813 11.5909 125.737 10.3886C126.66 9.18747 127.966 8.58631 129.656 8.58631C130.781 8.58631 131.722 8.85525 132.477 9.39314C133.232 9.93102 133.795 10.6746 134.167 11.625C134.538 12.5754 134.725 13.6792 134.725 14.9375C134.725 16.0814 134.544 17.1292 134.185 18.0784L134.183 18.0796Z" fill="white"/>
<path d="M141.299 1.85913H141.117C140.421 1.85913 139.855 2.43231 139.855 3.14056C139.855 3.84881 140.42 4.42199 141.117 4.42199H141.299C141.994 4.42199 142.56 3.84881 142.56 3.14056C142.56 2.43231 141.996 1.85913 141.299 1.85913Z" fill="white"/>
<path d="M142.56 5.94067H139.857V23.8296H142.56V5.94067Z" fill="white"/>
<path d="M159.553 10.1842C158.786 8.84561 157.779 7.81 156.529 7.0774C155.278 6.34481 153.932 5.97852 152.492 5.97852C151.051 5.97852 149.699 6.34481 148.438 7.0774C147.175 7.81 146.157 8.84561 145.38 10.1842C144.603 11.5229 144.215 13.1085 144.215 14.9388C144.215 16.769 144.604 18.3547 145.38 19.6933C146.157 21.032 147.177 22.0566 148.438 22.7661C149.699 23.4756 151.05 23.8297 152.492 23.8297C153.934 23.8297 155.278 23.4756 156.529 22.7661C157.779 22.0566 158.786 21.032 159.553 19.6933C160.318 18.3547 160.701 16.7703 160.701 14.9388C160.701 13.1073 160.318 11.5229 159.553 10.1842ZM157.204 18.3888C156.675 19.3392 155.993 20.0535 155.16 20.5342C154.326 21.0149 153.437 21.2547 152.492 21.2547C151.547 21.2547 150.645 21.0137 149.789 20.5342C148.932 20.0535 148.24 19.3392 147.711 18.3888C147.181 17.4396 146.917 16.2896 146.917 14.9388C146.917 13.588 147.187 12.4039 147.727 11.4547C148.268 10.5055 148.961 9.78386 149.805 9.29222C150.65 8.80058 151.545 8.55476 152.49 8.55476C153.435 8.55476 154.326 8.80666 155.159 9.31047C155.992 9.81428 156.674 10.5408 157.203 11.49C157.732 12.4404 157.997 13.5904 157.997 14.94C157.997 16.2896 157.732 17.4408 157.203 18.39L157.204 18.3888Z" fill="white"/>
<path d="M45.2707 0.82959H42.0371V4.1153H45.2707V0.82959Z" fill="white"/>
<path d="M42.0363 4.11548H38.8027V7.40119H42.0363V4.11548Z" fill="white"/>
<path d="M38.8019 7.40112H35.5684V10.6868H38.8019V7.40112Z" fill="white"/>
<path d="M35.5695 10.6868H32.3359V13.9725H35.5695V10.6868Z" fill="white"/>
<path d="M32.3351 10.6868H29.1016V13.9725H32.3351V10.6868Z" fill="white"/>
<path d="M68.9824 4.1153V0.82959L49.581 0.82959V4.1153L68.9824 4.1153Z" fill="white"/>
<path d="M68.9824 23.8297V20.5439H49.581V23.8297H68.9824Z" fill="white"/>
<path d="M49.582 20.544V17.2583L68.9835 4.11548V7.40119L49.582 20.544Z" fill="white"/>
<path d="M38.8019 13.9727H35.5684V17.2584H38.8019V13.9727Z" fill="white"/>
<path d="M42.0363 17.2583H38.8027V20.544H42.0363V17.2583Z" fill="white"/>
<path d="M45.2707 20.5439H42.0371V23.8297H45.2707V20.5439Z" fill="white"/>
<path d="M179.065 15.6299H182V14.1404H179.065L176.131 14.5127H174.083L175.531 13.0403L177.865 11.1954L179.941 9.08766L178.904 8.0338L176.828 10.1415L175.013 12.5133L173.565 13.9858V11.9036L173.931 8.92216V5.94067H172.464V8.92216L172.831 11.9036V13.9858L171.383 12.5133L169.567 10.1415L167.492 8.0338L166.454 9.08766L168.529 11.1954L170.863 13.0403L172.312 14.5127H170.263L167.329 14.1404H164.395V15.6299H167.329L170.263 15.2575H172.312L170.863 16.73L168.529 18.5749L166.454 20.6826L167.492 21.7364L169.567 19.6287L171.383 17.2569L172.831 15.7844V17.8666L172.464 20.8481V23.8296H173.931V20.8481L173.565 17.8666V15.7844L175.013 17.2569L176.828 19.6287L178.904 21.7364L179.941 20.6826L177.865 18.5749L175.531 16.73L174.083 15.2575H176.131L179.065 15.6299Z" fill="white"/>
<path d="M22.635 0.82959L13.4732 20.3796L11.8564 23.8296H10.7786L9.1618 20.3796L0 0.82959H4.31143L11.3175 15.7796L12.9343 19.2296L16.9379 10.6867C17.205 9.78499 17.3499 8.83213 17.3499 7.84398C17.3499 5.09615 16.2385 2.61239 14.4481 0.82959L22.635 0.82959Z" fill="white"/>
<path d="M29.1027 0.82959H25.8691V23.8296H29.1027V0.82959Z" fill="white"/>
</g>
<defs>
<clipPath id="clip0_2107_368">
<rect width="182" height="23" fill="white" transform="translate(0 0.82959)"/>
</clipPath>
</defs>
</svg>
